<svg width="226" height="172" viewBox="0 0 226 172" fill="none" xmlns="http://www.w3.org/2000/svg">
<g clip-path="url(#clip0_79_74)">
<path d="M90.4371 16.5537C87.6836 21.3009 92.8684 29.2995 87.643 30.9605L88.0735 30.5297C91.2276 26.6469 84.635 18.4287 87.7892 14.546C88.2792 13.9764 88.6999 13.3506 89.0424 12.6816" fill="#2F2E41"/>
<path d="M116.224 86.1984C116.314 85.7233 116.299 85.2342 116.18 84.7656C116.061 84.2969 115.841 83.8601 115.535 83.4858C115.229 83.1115 114.845 82.809 114.409 82.5994C113.974 82.3898 113.498 82.2784 113.014 82.2728L106.208 62.4834L102.441 67.2891L109.637 85.7801C109.682 86.593 110.023 87.3613 110.595 87.9395C111.168 88.5176 111.933 88.8654 112.745 88.917C113.557 88.9686 114.359 88.7203 115 88.2192C115.641 87.7181 116.077 86.9991 116.224 86.1984L116.224 86.1984Z" fill="#FFB8B8"/>
<path d="M86.3055 38.4185C86.3055 38.4185 86.0937 31.255 92.4947 35.3587C98.8956 39.4624 112.832 77.904 112.832 77.904L105.897 81.6592L90.1524 46.4807L86.3055 38.4185Z" fill="#1E8A97"/>
<path d="M105.19 161.197L101.994 162.563L95.2043 150.876L99.922 148.858L105.19 161.197Z" fill="#FFB6B6"/>
<path d="M109.243 166.017L106.951 166.998L105.617 165.007L105.494 167.621L99.4147 170.22C99.1233 170.345 98.7997 170.373 98.4912 170.301C98.1826 170.228 97.9053 170.059 97.6997 169.818C97.4941 169.576 97.371 169.276 97.3483 168.959C97.3256 168.643 97.4046 168.328 97.5736 168.059L100.996 162.628L100.061 160.438L105.297 158.56L109.243 166.017Z" fill="#2F2E41"/>
<path d="M55.085 165.161L51.6134 164.991L50.6155 151.509L55.7397 151.759L55.085 165.161Z" fill="#FFB6B6"/>
<path d="M56.6234 171.271L54.1337 171.149L53.8042 168.775L52.5511 171.071L45.9478 170.748C45.6313 170.733 45.328 170.617 45.0822 170.417C44.8365 170.216 44.661 169.943 44.5816 169.636C44.5022 169.329 44.5229 169.004 44.6407 168.71C44.7586 168.416 44.9674 168.167 45.2366 167.999L50.6878 164.613L50.8039 162.234L56.3342 162.837L56.6234 171.271Z" fill="#2F2E41"/>
<path d="M157.376 163.013C157.606 163.022 157.833 162.959 158.026 162.834C158.219 162.709 158.37 162.528 158.456 162.314C158.543 162.101 158.562 161.866 158.511 161.642C158.46 161.417 158.341 161.214 158.171 161.059C158.141 160.947 158.12 160.866 158.091 160.754C158.306 160.192 158.683 159.708 159.174 159.363C159.666 159.017 160.249 158.827 160.85 158.815C161.45 158.804 162.04 158.972 162.545 159.299C163.049 159.625 163.444 160.095 163.68 160.648C165.04 163.751 166.792 166.96 165.968 170.399C171.509 158.352 169.444 143.451 160.99 133.274C158.668 132.023 156.774 129.778 156.261 127.156C157.408 127.533 158.825 126.588 157.954 125.392C157.577 124.934 157.196 124.481 156.819 124.024C161.118 119.354 166.361 126.579 161.641 132.872C163.223 134.819 164.598 136.926 165.742 139.159C165.46 136.779 165.747 134.366 166.578 132.118C167.423 130.023 169.027 128.249 170.437 126.431C172.151 124.216 175.731 125.197 175.991 127.984C174.395 128.526 174.209 130.843 176.044 131.142C175.613 136.337 172.27 141.139 167.625 143.46C169.395 148.283 170.117 153.427 169.743 158.551C170.51 152.56 176.914 151.047 181.377 148.626C181.661 148.44 181.993 148.34 182.332 148.34C182.671 148.339 183.003 148.438 183.287 148.623C183.572 148.808 183.796 149.072 183.933 149.382C184.07 149.693 184.114 150.037 184.059 150.372C183.442 150.629 182.853 150.948 182.299 151.322C182.039 151.501 181.841 151.755 181.732 152.05C181.622 152.345 181.607 152.667 181.687 152.972C181.768 153.276 181.94 153.548 182.182 153.751C182.423 153.953 182.72 154.076 183.034 154.102C180.826 159.724 175.016 163.541 169.012 163.577C168.459 166.092 167.646 168.542 166.586 170.889L157.675 170.974C157.642 170.875 157.612 170.773 157.583 170.674C158.408 170.718 159.236 170.661 160.047 170.504C157.84 167.939 156.14 166.635 157.376 163.013L157.376 163.013Z" fill="#F2F2F2"/>
<path d="M63.8552 77.523C63.8552 77.523 56.7952 96.778 56.6812 98.9327C56.5671 101.087 54.5537 128.336 52.8651 129.919C51.1765 131.502 46.014 156.048 50.0309 157.967C54.0479 159.887 66.721 156.707 66.721 156.707L71.1297 127.713L72.6274 105.5C72.6274 105.5 77.1869 157.808 85.4566 157.654C93.7262 157.5 103.803 154.348 103.803 154.348L92.2286 122.67C92.2286 122.67 92.3922 85.1676 89.7093 77.6035C87.0264 70.0394 63.8552 77.523 63.8552 77.523Z" fill="#2F2E41"/>
<path d="M84.8041 27.915L75.3492 28.7817L73.8261 33.4611C73.8261 33.4611 65.9136 37.8098 67.6657 39.7855C69.4177 41.7612 67.2739 55.0756 67.2739 55.0756L67.7581 65.8831C67.7581 65.8831 67.238 73.3707 65.6814 75.0959C64.1248 76.8211 60.0525 81.0515 62.9299 79.0275C73.0191 71.9311 90.6539 77.919 90.6539 77.919L88.1347 62.4765C88.1347 62.4765 93.8569 37.1935 91.5987 35.0583C89.3405 32.923 87.2098 32.6531 87.2098 32.6531L84.8041 27.915Z" fill="#1E8A97"/>
<path d="M35.1229 76.8977C35.5979 76.8092 36.0477 76.6175 36.4407 76.3362C36.8337 76.0548 37.1603 75.6907 37.3974 75.2694C37.6346 74.8481 37.7766 74.3798 37.8133 73.8977C37.8501 73.4155 37.7808 72.9312 37.6103 72.4787L53.5571 58.939L47.7141 57.1738L33.1177 70.6051C32.3772 70.9421 31.786 71.5393 31.456 72.2834C31.1261 73.0276 31.0803 73.867 31.3275 74.6427C31.5746 75.4183 32.0975 76.0763 32.797 76.4919C33.4965 76.9075 34.3241 77.0519 35.1229 76.8977Z" fill="#FFB8B8"/>
<path d="M75.6217 41.482C75.6217 41.482 78.7637 35.042 71.2419 36.1421C63.7201 37.2421 35.196 66.5236 35.196 66.5236L39.9696 72.8048L68.7975 47.2421L75.6217 41.482Z" fill="#1E8A97"/>
<path d="M63.3729 30.558L33.5503 68.7942C33.0344 69.4578 32.8024 70.299 32.9052 71.1336C33.008 71.9681 33.4371 72.7278 34.0986 73.2462C41.0241 90.075 61.7435 102.554 86.117 113.881C86.7799 114.398 87.6206 114.631 88.4547 114.528C89.2887 114.425 90.0479 113.995 90.5656 113.333L120.388 75.0965C120.905 74.433 121.137 73.5917 121.034 72.757C120.931 71.9223 120.502 71.1625 119.84 70.6445C99.3859 59.086 81.8058 45.6944 67.8214 30.0093C67.1583 29.493 66.3177 29.2609 65.4839 29.3637C64.65 29.4666 63.8909 29.896 63.3729 30.558Z" fill="#E6E6E6"/>
<path d="M118.295 74.2268L109.217 85.8655C103.672 92.9324 95.5579 97.5159 86.647 98.6149C77.736 99.714 68.7526 97.2392 61.659 91.7312L36.2192 71.8584C35.8424 71.5639 35.5976 71.1318 35.5387 70.657C35.4797 70.1821 35.6114 69.7032 35.9048 69.3254L64.7224 32.3777C65.0174 32.0011 65.4496 31.757 65.9242 31.6989C66.3989 31.6408 66.8771 31.7735 67.2541 32.0679C80.1229 48.6982 97.3488 61.6399 117.983 71.6959C118.359 71.9905 118.604 72.4224 118.662 72.8969C118.72 73.3714 118.588 73.8496 118.295 74.2268Z" fill="white"/>
<path d="M62.7778 51.4318L56.8659 59.0116C56.709 59.2123 56.4789 59.3426 56.2261 59.3736C55.9733 59.4047 55.7186 59.334 55.5178 59.1772C55.3171 59.0204 55.1867 58.7902 55.1555 58.5373C55.1242 58.2843 55.1946 58.0293 55.3511 57.8283L61.263 50.2485C61.3406 50.1488 61.437 50.0655 61.5468 50.0031C61.6566 49.9408 61.7776 49.9007 61.9029 49.8852C62.0282 49.8697 62.1553 49.879 62.277 49.9127C62.3987 49.9464 62.5126 50.0038 62.6121 50.0815C62.7116 50.1592 62.7948 50.2558 62.857 50.3658C62.9192 50.4757 62.9591 50.5969 62.9745 50.7223C62.9899 50.8477 62.9805 50.9749 62.9467 51.0966C62.9129 51.2184 62.8555 51.3323 62.7777 51.4318H62.7778Z" fill="#CCCCCC"/>
<path d="M73.8667 45.8094L60.8837 62.4551C60.8061 62.5547 60.7096 62.6379 60.5998 62.7002C60.49 62.7624 60.3691 62.8024 60.2438 62.8178C60.1186 62.8333 59.9916 62.8239 59.87 62.7902C59.7484 62.7565 59.6346 62.6992 59.5351 62.6215C59.4357 62.5438 59.3525 62.4472 59.2903 62.3374C59.2281 62.2275 59.1882 62.1064 59.1727 61.9811C59.1573 61.8558 59.1667 61.7286 59.2004 61.6069C59.234 61.4852 59.2913 61.3714 59.3689 61.2718L72.3519 44.6261C72.4295 44.5263 72.5259 44.4428 72.6357 44.3804C72.7456 44.3179 72.8666 44.2778 72.992 44.2622C73.1173 44.2466 73.2445 44.256 73.3663 44.2896C73.488 44.3233 73.6019 44.3807 73.7015 44.4585C73.8011 44.5362 73.8843 44.6329 73.9465 44.7429C74.0087 44.8529 74.0486 44.9742 74.064 45.0996C74.0793 45.2251 74.0698 45.3524 74.036 45.4741C74.0021 45.5959 73.9446 45.7098 73.8667 45.8094H73.8667Z" fill="#CCCCCC"/>
<path d="M51.7239 73.5738C55.2189 73.5738 58.0522 70.7383 58.0522 67.2405C58.0522 63.7427 55.2189 60.9072 51.7239 60.9072C48.2288 60.9072 45.3955 63.7427 45.3955 67.2405C45.3955 70.7383 48.2288 73.5738 51.7239 73.5738Z" fill="#1E8A97"/>
<path d="M74.5561 58.9652L58.6104 79.4095C58.444 79.5791 58.221 79.6815 57.984 79.6971C57.7471 79.7128 57.5126 79.6406 57.3254 79.4943C57.1382 79.3481 57.0113 79.138 56.9689 78.9041C56.9265 78.6703 56.9716 78.429 57.0956 78.2262L73.0413 57.7819C73.2077 57.6123 73.4307 57.5099 73.6676 57.4943C73.9046 57.4786 74.1391 57.5508 74.3263 57.6971C74.5135 57.8433 74.6404 58.0534 74.6828 58.2873C74.7252 58.5211 74.6801 58.7625 74.5561 58.9652Z" fill="#CCCCCC"/>
<path d="M84.9004 54.2972L62.6441 82.8325C62.4777 83.0021 62.2547 83.1045 62.0177 83.1201C61.7807 83.1358 61.5463 83.0636 61.3591 82.9174C61.1719 82.7711 61.045 82.561 61.0026 82.3271C60.9602 82.0933 61.0053 81.852 61.1293 81.6493L83.3856 53.1139C83.552 52.9443 83.775 52.842 84.0119 52.8263C84.2489 52.8107 84.4834 52.8829 84.6706 53.0291C84.8578 53.1754 84.9847 53.3855 85.0271 53.6193C85.0695 53.8532 85.0244 54.0945 84.9004 54.2972Z" fill="#CCCCCC"/>
<path d="M84.8232 66.9847L68.8775 87.4291C68.7111 87.5986 68.4881 87.701 68.2511 87.7167C68.0141 87.7323 67.7797 87.6601 67.5925 87.5139C67.4053 87.3676 67.2784 87.1575 67.236 86.9237C67.1936 86.6898 67.2387 86.4485 67.3627 86.2458L83.3084 65.8014C83.4748 65.6318 83.6977 65.5295 83.9347 65.5138C84.1717 65.4982 84.4062 65.5704 84.5934 65.7166C84.7806 65.8629 84.9075 66.0729 84.9499 66.3068C84.9922 66.5407 84.9471 66.782 84.8232 66.9847Z" fill="#CCCCCC"/>
<path d="M105.922 69.5062L89.9763 89.9505C89.8099 90.1201 89.587 90.2225 89.35 90.2382C89.113 90.2538 88.8786 90.1816 88.6913 90.0354C88.5041 89.8891 88.3772 89.679 88.3349 89.4452C88.2925 89.2113 88.3376 88.97 88.4616 88.7673L104.407 68.3229C104.574 68.1533 104.797 68.0509 105.034 68.0353C105.271 68.0197 105.505 68.0918 105.692 68.2381C105.879 68.3843 106.006 68.5944 106.049 68.8283C106.091 69.0622 106.046 69.3035 105.922 69.5062Z" fill="#1E8A97"/>
<path d="M95.1675 62.3177L72.9112 90.853C72.7447 91.0226 72.5218 91.125 72.2848 91.1406C72.0478 91.1563 71.8134 91.0841 71.6262 90.9379C71.4389 90.7916 71.312 90.5815 71.2697 90.3477C71.2273 90.1138 71.2724 89.8725 71.3964 89.6697L93.6527 61.1344C93.8191 60.9648 94.042 60.8625 94.279 60.8468C94.516 60.8312 94.7505 60.9034 94.9377 61.0496C95.1249 61.1959 95.2518 61.406 95.2942 61.6398C95.3365 61.8737 95.2914 62.115 95.1675 62.3177Z" fill="#CCCCCC"/>
<path d="M68.9526 15.8343C68.9521 17.3728 69.3289 18.8879 70.05 20.2466C70.7711 21.6053 71.8144 22.766 73.0884 23.627C74.3624 24.488 75.8282 25.0228 77.3569 25.1845C78.8857 25.3462 80.4307 25.1299 81.8564 24.5545C83.2821 23.9791 84.5449 23.0623 85.5339 21.8845C86.5229 20.7067 87.2079 19.3039 87.5288 17.7993C87.8496 16.2947 87.7964 14.7343 87.374 13.2551C86.9516 11.7758 86.1728 10.423 85.1059 9.3153L85.0609 9.27024C84.9857 9.19126 84.9106 9.11232 84.8317 9.03711C84.8312 9.03711 84.8307 9.03702 84.8303 9.03684C84.8298 9.03665 84.8294 9.03638 84.829 9.03602C84.8287 9.03567 84.8284 9.03525 84.8282 9.03479C84.828 9.03433 84.8279 9.03384 84.828 9.03335C84.7303 8.94312 84.6326 8.85289 84.5312 8.76643C83.1741 7.57575 81.5029 6.80172 79.7176 6.53701C77.9324 6.27231 76.1087 6.52814 74.465 7.2739C72.8212 8.01965 71.4271 9.22371 70.4495 10.7419C69.4718 12.2601 68.9522 14.0282 68.9526 15.8343V15.8343Z" fill="#2F2E41"/>
<path d="M80.6578 25.8904C85.0072 25.8904 88.533 22.3619 88.533 18.0092C88.533 13.6565 85.0072 10.1279 80.6578 10.1279C76.3085 10.1279 72.7827 13.6565 72.7827 18.0092C72.7827 22.3619 76.3085 25.8904 80.6578 25.8904Z" fill="#FFB8B8"/>
<path d="M72.2627 20.1091C71.4929 16.6375 72.6056 12.7481 75.0313 10.4304C76.2514 9.28779 77.7688 8.51283 79.4093 8.19461C81.0497 7.8764 82.7465 8.02784 84.3048 8.63154C84.5029 8.71156 84.7009 8.79912 84.8953 8.89052L84.9857 8.93315V8.94638C85.0032 8.95854 85.0208 8.97131 85.0383 8.98424C85.075 9.01868 85.1197 9.04338 85.1684 9.05609C85.8521 9.03819 86.532 9.16509 87.1634 9.42848C87.7947 9.69187 88.3633 10.0858 88.8319 10.5845C90.0525 11.9099 90.6273 14.0518 90.4511 16.6156L90.4455 16.6958L90.3773 16.7384C89.4532 17.3244 88.4943 17.8535 87.5059 18.3228C84.0487 19.9496 80.8925 20.2511 77.8591 19.2432L77.8034 19.2247L76.5302 17.0893C76.2688 18.5621 76.4084 23.4473 74.9086 23.712L72.2953 20.2563L72.2627 20.1091Z" fill="#2F2E41"/>
<path d="M55.6849 26.9715C58.3648 25.5872 54.9181 20.563 55.6107 17.6255C56.3033 14.6881 61.2907 13.7433 61.6084 10.7419C61.9261 7.74056 62.6736 4.64498 64.6526 2.36753C65.9171 0.912241 67.7805 -0.162105 69.6989 0.0201788C70.3481 0.0818521 70.9763 0.282808 71.5408 0.609358C72.1053 0.935909 72.5928 1.38039 72.9702 1.91251C73.3476 2.44464 73.606 3.05191 73.7277 3.69297C73.8495 4.33403 73.8317 4.99382 73.6757 5.6274C74.2219 4.85283 75.6355 5.0207 75.9854 5.90175C76.2965 6.68499 75.6093 7.63372 74.8005 7.70302C73.7423 9.0109 72.5305 10.3989 70.8726 10.6627C70.6085 10.7235 70.334 10.7233 70.0699 10.6623C69.8058 10.6013 69.5591 10.481 69.3482 10.3106C68.9582 9.93577 68.9278 9.18635 69.3905 8.90622C67.307 9.73449 66.0855 11.9889 65.7764 14.2111C65.4673 16.4332 65.8949 18.6816 66.1768 20.9073C66.4586 23.1331 66.58 25.4745 65.708 27.5414C64.6777 29.9835 62.3056 31.7338 59.7168 32.2951C57.1281 32.8564 54.3711 32.3078 52.0279 31.0719C49.6846 29.8358 47.7305 27.9489 46.1343 25.8334C48.884 27.7874 52.6882 28.5195 55.6849 26.9715Z" fill="#2F2E41"/>
<path d="M76.896 17.499C74.1426 22.2462 79.3273 30.2448 74.1019 31.9058L74.5324 31.475C77.6866 27.5922 71.0939 19.3741 74.2481 15.4913C74.7382 14.9217 75.1589 14.2959 75.5014 13.627" fill="#2F2E41"/>
<path d="M72.6304 20.0371C72.6304 20.0371 74.9632 11.3226 84.9632 9.31127C84.9745 9.30756 85.0121 9.2925 85.0609 9.26997C85.091 9.25115 85.1285 9.23234 85.1661 9.21356C85.0534 9.14963 84.9445 9.09327 84.8318 9.03682C84.8313 9.03683 84.8308 9.03674 84.8303 9.03655C84.8298 9.03637 84.8294 9.03609 84.8291 9.03574C84.8287 9.03539 84.8285 9.03497 84.8283 9.03451C84.8281 9.03405 84.828 9.03356 84.828 9.03306C84.7303 8.94284 84.6327 8.85261 84.5312 8.76615L84.2457 8.77744C84.2457 8.77744 74.2119 7.18719 72.6304 20.0371Z" fill="#FD6584"/>
<path d="M1.66792e-06 171.245C-0.000145519 171.294 0.00945019 171.343 0.0282317 171.389C0.0470132 171.434 0.0746137 171.476 0.109443 171.511C0.144272 171.546 0.185641 171.573 0.231176 171.592C0.27671 171.611 0.325508 171.62 0.374762 171.62H225.625C225.725 171.62 225.82 171.581 225.89 171.51C225.961 171.44 226 171.345 226 171.245C226 171.146 225.961 171.05 225.89 170.98C225.82 170.91 225.725 170.87 225.625 170.87H0.374743C0.325491 170.87 0.276697 170.88 0.231166 170.898C0.185635 170.917 0.144265 170.945 0.109438 170.98C0.0746114 171.014 0.0470128 171.056 0.0282317 171.101C0.00945063 171.147 -0.000143417 171.196 1.66792e-06 171.245Z" fill="#CCCCCC"/>
</g>
<defs>
<clipPath id="clip0_79_74">
<rect width="226" height="171.62" fill="white"/>
</clipPath>
</defs>
</svg>
