<svg width="627" height="402" viewBox="0 0 627 402" fill="none" xmlns="http://www.w3.org/2000/svg">
<g clip-path="url(#clip0_87_61)">
<path d="M586.083 355.194H427.645C421.881 355.187 416.354 352.896 412.279 348.822C408.203 344.748 405.91 339.224 405.903 333.463V83.6667C405.91 77.9052 408.203 72.3816 412.279 68.3076C416.354 64.2336 421.881 61.942 427.645 61.9355H586.083C591.847 61.942 597.374 64.2336 601.45 68.3076C605.526 72.3816 607.818 77.9052 607.825 83.6667V333.463C607.818 339.224 605.526 344.748 601.45 348.822C597.374 352.896 591.847 355.187 586.083 355.194Z" fill="#E6E6E6"/>
<path d="M588.71 74.9023H427.346C425.542 74.9046 423.812 75.622 422.536 76.8973C421.26 78.1726 420.542 79.9016 420.54 81.7051V334.758C420.543 336.562 421.261 338.29 422.537 339.566C423.812 340.841 425.542 341.558 427.346 341.561H588.71C590.515 341.559 592.245 340.842 593.521 339.566C594.796 338.291 595.514 336.562 595.516 334.758V81.7051C595.514 79.9016 594.796 78.1726 593.521 76.8973C592.245 75.622 590.515 74.9046 588.71 74.9023Z" fill="white"/>
<path d="M431.518 61.9349C431.518 61.4942 431.693 61.0716 432.005 60.76C432.317 60.4483 432.74 60.273 433.181 60.2725H444.491C444.932 60.2725 445.355 60.4476 445.667 60.7594C445.979 61.0712 446.154 61.494 446.154 61.9349C446.154 62.3758 445.979 62.7987 445.667 63.1105C445.355 63.4222 444.932 63.5974 444.491 63.5974H433.181C432.74 63.5968 432.317 63.4215 432.005 63.1099C431.693 62.7982 431.518 62.3757 431.518 61.9349Z" fill="#E6E6E6"/>
<path d="M450.146 61.9349C450.147 61.4942 450.322 61.0716 450.634 60.76C450.946 60.4483 451.369 60.273 451.81 60.2725H463.12C463.561 60.2725 463.984 60.4476 464.296 60.7594C464.608 61.0712 464.783 61.494 464.783 61.9349C464.783 62.3758 464.608 62.7987 464.296 63.1105C463.984 63.4222 463.561 63.5974 463.12 63.5974H451.81C451.369 63.5969 450.946 63.4216 450.634 63.1099C450.322 62.7982 450.147 62.3757 450.146 61.9349Z" fill="#E6E6E6"/>
<path d="M561.918 61.9349C561.919 61.4942 562.094 61.0716 562.406 60.76C562.718 60.4483 563.141 60.273 563.582 60.2725H574.892C575.333 60.2725 575.756 60.4476 576.068 60.7594C576.38 61.0712 576.555 61.494 576.555 61.9349C576.555 62.3758 576.38 62.7987 576.068 63.1105C575.756 63.4222 575.333 63.5974 574.892 63.5974H563.582C563.141 63.5969 562.718 63.4216 562.406 63.1099C562.094 62.7982 561.919 62.3757 561.918 61.9349Z" fill="#E6E6E6"/>
<path d="M530.389 336.348C530.389 338.097 530.356 339.839 530.276 341.562H427.346C425.542 341.559 423.812 340.841 422.537 339.566C421.261 338.291 420.543 336.562 420.54 334.759V207.388C451.192 212.338 479.08 228.033 499.208 251.663C519.336 275.293 530.39 305.314 530.389 336.348Z" fill="#F2F2F2"/>
<path d="M526.894 139.933H488.507C486.76 139.933 485.344 141.348 485.344 143.094V147.039C485.344 148.785 486.76 150.2 488.507 150.2H526.894C528.641 150.2 530.057 148.785 530.057 147.039V143.094C530.057 141.348 528.641 139.933 526.894 139.933Z" fill="#1E8A97"/>
<path d="M551.292 160.468H464.109C462.362 160.468 460.946 161.883 460.946 163.629V167.574C460.946 169.32 462.362 170.736 464.109 170.736H551.292C553.039 170.736 554.455 169.32 554.455 167.574V163.629C554.455 161.883 553.039 160.468 551.292 160.468Z" fill="#E6E6E6"/>
<path d="M551.292 181.004H464.109C462.362 181.004 460.946 182.419 460.946 184.165V188.11C460.946 189.856 462.362 191.272 464.109 191.272H551.292C553.039 191.272 554.455 189.856 554.455 188.11V184.165C554.455 182.419 553.039 181.004 551.292 181.004Z" fill="#E6E6E6"/>
<path d="M536.363 324.267C535.863 324.29 535.368 324.159 534.945 323.892C534.522 323.624 534.192 323.233 533.999 322.772C533.806 322.31 533.759 321.801 533.866 321.312C533.972 320.823 534.226 320.379 534.594 320.039L534.761 319.375C534.739 319.322 534.717 319.269 534.695 319.215C534.191 318.026 533.347 317.013 532.269 316.302C531.191 315.591 529.927 315.214 528.635 315.219C527.343 315.224 526.082 315.61 525.009 316.329C523.937 317.048 523.1 318.068 522.606 319.26C520.628 324.02 518.111 328.788 517.491 333.821C517.218 336.045 517.333 338.3 517.831 340.485C513.187 330.36 510.776 319.355 510.76 308.217C510.759 305.421 510.915 302.629 511.226 299.851C511.483 297.574 511.839 295.313 512.296 293.068C514.785 280.888 520.129 269.472 527.889 259.758C531.645 257.709 534.683 254.559 536.592 250.732C537.284 249.356 537.773 247.888 538.044 246.372C537.62 246.428 537.19 246.462 536.766 246.49C536.634 246.497 536.495 246.504 536.363 246.511L536.313 246.513C535.848 246.534 535.386 246.42 534.984 246.185C534.581 245.949 534.256 245.603 534.046 245.187C533.836 244.771 533.751 244.303 533.801 243.84C533.851 243.377 534.034 242.938 534.328 242.576C534.511 242.351 534.694 242.126 534.877 241.901C535.155 241.554 535.439 241.214 535.717 240.867C535.749 240.834 535.78 240.799 535.808 240.763C536.127 240.367 536.447 239.978 536.766 239.582C536.183 238.678 535.398 237.92 534.474 237.368C531.272 235.493 526.854 236.791 524.541 239.686C522.221 242.581 521.784 246.643 522.589 250.26C523.382 253.338 524.692 256.258 526.465 258.896C526.292 259.119 526.111 259.334 525.937 259.556C522.763 263.636 519.996 268.017 517.677 272.636C518.241 267.461 517.568 262.226 515.713 257.362C513.833 252.829 510.309 249.011 507.206 245.092C503.479 240.385 495.835 242.44 495.179 248.407C495.172 248.464 495.166 248.522 495.16 248.58C495.621 248.84 496.072 249.116 496.514 249.407C497.068 249.778 497.498 250.307 497.746 250.926C497.995 251.544 498.051 252.223 497.906 252.874C497.762 253.525 497.425 254.117 496.938 254.573C496.451 255.029 495.838 255.327 495.179 255.429L495.111 255.439C495.276 257.1 495.566 258.745 495.98 260.361C497.179 264.874 499.297 269.09 502.203 272.746C505.109 276.402 508.739 279.418 512.865 281.606C513.136 281.744 513.4 281.883 513.671 282.015C511.341 288.616 509.879 295.491 509.323 302.468C509.008 306.584 509.026 310.719 509.378 314.833L509.357 314.687C508.468 310.113 506.027 305.986 502.446 303.003C497.128 298.636 489.613 297.028 483.876 293.518C483.266 293.126 482.557 292.917 481.832 292.916C481.108 292.914 480.397 293.119 479.786 293.508C479.174 293.896 478.686 294.451 478.38 295.107C478.073 295.764 477.961 296.494 478.056 297.212C478.064 297.263 478.072 297.314 478.08 297.365C478.935 297.713 479.768 298.115 480.573 298.566C481.034 298.826 481.485 299.102 481.927 299.394C482.482 299.764 482.911 300.293 483.16 300.912C483.408 301.531 483.464 302.21 483.32 302.861C483.176 303.512 482.838 304.104 482.351 304.56C481.865 305.015 481.251 305.314 480.592 305.415L480.525 305.426C480.476 305.432 480.434 305.439 480.386 305.446C481.847 308.934 483.899 312.145 486.45 314.937C489.601 318.317 493.41 321.018 497.643 322.874C501.876 324.731 506.444 325.703 511.066 325.733H511.073C512.328 331.182 514.146 336.487 516.498 341.562H535.877C535.947 341.346 536.009 341.124 536.072 340.909C534.278 341.022 532.477 340.914 530.709 340.59C532.147 338.826 533.585 337.049 535.023 335.285C535.055 335.253 535.085 335.218 535.113 335.181C535.842 334.279 536.579 333.383 537.308 332.481L537.308 332.48C537.347 329.713 537.029 326.953 536.363 324.268L536.363 324.267ZM514.171 280.634L514.181 280.62L514.171 280.648V280.634ZM509.878 319.311L509.712 318.936C509.719 318.665 509.719 318.394 509.712 318.117C509.712 318.04 509.698 317.964 509.698 317.887C509.76 318.366 509.816 318.846 509.885 319.325L509.878 319.311Z" fill="#CCCCCC"/>
<path d="M580.645 97.2435H435.412C435.098 97.2366 434.799 97.107 434.579 96.8825C434.359 96.6579 434.236 96.3563 434.236 96.0422C434.236 95.7281 434.359 95.4264 434.579 95.2019C434.799 94.9774 435.098 94.8477 435.412 94.8408H580.645C580.959 94.8477 581.258 94.9774 581.477 95.2019C581.697 95.4264 581.82 95.7281 581.82 96.0422C581.82 96.3563 581.697 96.6579 581.477 96.8825C581.258 97.107 580.959 97.2366 580.645 97.2435Z" fill="#CACACA"/>
<path d="M443.161 91.3668C445.112 91.3668 446.693 89.7507 446.693 87.7571C446.693 85.7636 445.112 84.1475 443.161 84.1475C441.21 84.1475 439.628 85.7636 439.628 87.7571C439.628 89.7507 441.21 91.3668 443.161 91.3668Z" fill="#3F3D56"/>
<path d="M455.364 91.3668C457.315 91.3668 458.897 89.7507 458.897 87.7571C458.897 85.7636 457.315 84.1475 455.364 84.1475C453.413 84.1475 451.832 85.7636 451.832 87.7571C451.832 89.7507 453.413 91.3668 455.364 91.3668Z" fill="#3F3D56"/>
<path d="M467.568 91.3668C469.519 91.3668 471.101 89.7507 471.101 87.7571C471.101 85.7636 469.519 84.1475 467.568 84.1475C465.617 84.1475 464.036 85.7636 464.036 87.7571C464.036 89.7507 465.617 91.3668 467.568 91.3668Z" fill="#3F3D56"/>
<path d="M574.968 85.542H567.062C566.905 85.5451 566.756 85.6095 566.646 85.7214C566.537 85.8332 566.475 85.9836 566.475 86.1403C566.475 86.297 566.537 86.4474 566.646 86.5593C566.756 86.6711 566.905 86.7355 567.062 86.7386H574.968C575.124 86.7355 575.274 86.6711 575.383 86.5593C575.493 86.4474 575.555 86.297 575.555 86.1403C575.555 85.9836 575.493 85.8332 575.383 85.7214C575.274 85.6095 575.124 85.5451 574.968 85.542Z" fill="#3F3D56"/>
<path d="M574.968 87.7881H567.062C566.905 87.7912 566.756 87.8556 566.646 87.9674C566.537 88.0793 566.475 88.2297 566.475 88.3864C566.475 88.5431 566.537 88.6935 566.646 88.8053C566.756 88.9172 566.905 88.9816 567.062 88.9847H574.968C575.124 88.9816 575.274 88.9172 575.383 88.8053C575.493 88.6935 575.555 88.5431 575.555 88.3864C575.555 88.2297 575.493 88.0793 575.383 87.9674C575.274 87.8556 575.124 87.7912 574.968 87.7881Z" fill="#3F3D56"/>
<path d="M574.968 90.0312H567.062C566.905 90.0343 566.756 90.0987 566.646 90.2106C566.537 90.3225 566.475 90.4729 566.475 90.6296C566.475 90.7862 566.537 90.9366 566.646 91.0485C566.756 91.1604 566.905 91.2248 567.062 91.2279H574.968C575.124 91.2248 575.274 91.1604 575.383 91.0485C575.493 90.9366 575.555 90.7862 575.555 90.6296C575.555 90.4729 575.493 90.3225 575.383 90.2106C575.274 90.0987 575.124 90.0343 574.968 90.0312Z" fill="#3F3D56"/>
<path d="M339.329 207.482H255.127C253.936 207.484 252.794 207.959 251.953 208.802C251.112 209.645 250.64 210.787 250.641 211.978V344.927H343.826V211.978C343.827 211.387 343.711 210.803 343.485 210.257C343.259 209.711 342.927 209.216 342.51 208.798C342.092 208.381 341.596 208.05 341.05 207.824C340.505 207.598 339.92 207.482 339.329 207.482ZM297.511 283.023C294.878 283.01 292.356 281.959 290.494 280.098C288.632 278.237 287.581 275.717 287.568 273.085V257.75C287.571 255.116 288.619 252.59 290.484 250.728C292.348 248.867 294.876 247.821 297.511 247.821C300.147 247.821 302.674 248.867 304.539 250.728C306.403 252.59 307.452 255.116 307.454 257.75V273.085C307.442 275.717 306.39 278.237 304.528 280.098C302.666 281.959 300.144 283.01 297.511 283.023Z" fill="#E6E6E6"/>
<path d="M250.352 340.675V353.502C250.353 354.166 250.618 354.803 251.088 355.273C251.559 355.743 252.196 356.008 252.861 356.009H341.607C342.271 356.006 342.907 355.741 343.377 355.271C343.847 354.802 344.112 354.166 344.115 353.502V340.675L250.352 340.675Z" fill="#CCCCCC"/>
<path d="M478.76 0H118.829C115.737 0.00491721 112.772 1.23493 110.586 3.42049C108.399 5.60606 107.169 8.56891 107.164 11.6598V254.424C107.167 257.515 108.397 260.479 110.584 262.665C112.771 264.851 115.736 266.081 118.829 266.084H478.76C481.853 266.081 484.818 264.851 487.005 262.665C489.192 260.479 490.422 257.515 490.425 254.424V11.6598C490.42 8.5689 489.19 5.60606 487.003 3.42049C484.816 1.23493 481.852 0.00491529 478.76 0Z" fill="#E6E6E6"/>
<path d="M475.755 8.42188H121.836C120.181 8.42547 118.594 9.08538 117.424 10.2568C116.255 11.4282 115.598 13.0156 115.598 14.6705V251.417C115.601 253.07 116.259 254.655 117.428 255.824C118.597 256.992 120.183 257.65 121.836 257.653H475.755C477.409 257.65 478.994 256.992 480.164 255.824C481.333 254.655 481.991 253.07 481.994 251.417V14.6705C481.994 13.0156 481.337 11.4282 480.167 10.2568C478.998 9.08538 477.411 8.42547 475.755 8.42188Z" fill="white"/>
<path d="M481.994 14.6705V251.417C481.991 253.07 481.333 254.655 480.164 255.824C478.994 256.992 477.409 257.65 475.755 257.653H350.956C337.15 244.856 325.823 229.623 317.544 212.72C317 211.631 316.481 210.529 315.988 209.414C308.445 193.054 303.877 175.481 302.499 157.52C302.408 156.418 302.33 155.316 302.278 154.201C302.11 151.349 302.032 148.458 302.032 145.554C302.007 126.241 305.656 107.099 312.784 89.1481C313.212 88.0332 313.666 86.9313 314.133 85.8293C328.479 52.1398 354.401 24.6856 387.22 8.42188H475.755C477.411 8.42547 478.998 9.08538 480.167 10.2568C481.337 11.4282 481.994 13.0156 481.994 14.6705Z" fill="#1E8A97"/>
<path d="M457.965 41.0398H126.804C126.459 41.0325 126.132 40.8906 125.891 40.6445C125.65 40.3985 125.515 40.0678 125.515 39.7235C125.515 39.3792 125.65 39.0486 125.891 38.8025C126.132 38.5565 126.459 38.4146 126.804 38.4072H457.965C458.309 38.4146 458.637 38.5565 458.878 38.8025C459.119 39.0486 459.254 39.3792 459.254 39.7235C459.254 40.0678 459.119 40.3985 458.878 40.6445C458.637 40.8906 458.309 41.0325 457.965 41.0398Z" fill="#CACACA"/>
<path d="M149.346 31.687C153.609 31.687 157.064 28.1563 157.064 23.801C157.064 19.4457 153.609 15.915 149.346 15.915C145.084 15.915 141.628 19.4457 141.628 23.801C141.628 28.1563 145.084 31.687 149.346 31.687Z" fill="#3F3D56"/>
<path d="M176.008 31.687C180.27 31.687 183.726 28.1563 183.726 23.801C183.726 19.4457 180.27 15.915 176.008 15.915C171.745 15.915 168.29 19.4457 168.29 23.801C168.29 28.1563 171.745 31.687 176.008 31.687Z" fill="#3F3D56"/>
<path d="M202.67 31.687C206.932 31.687 210.388 28.1563 210.388 23.801C210.388 19.4457 206.932 15.915 202.67 15.915C198.408 15.915 194.952 19.4457 194.952 23.801C194.952 28.1563 198.408 31.687 202.67 31.687Z" fill="#3F3D56"/>
<path d="M441.912 17.8691H422.973C422.597 17.8766 422.24 18.0308 421.977 18.2988C421.714 18.5668 421.567 18.9272 421.567 19.3025C421.567 19.6778 421.714 20.0381 421.977 20.3061C422.24 20.5741 422.597 20.7284 422.973 20.7358H441.912C442.287 20.7284 442.645 20.5741 442.908 20.3061C443.171 20.0381 443.318 19.6778 443.318 19.3025C443.318 18.9272 443.171 18.5668 442.908 18.2988C442.645 18.0308 442.287 17.8766 441.912 17.8691Z" fill="#3F3D56"/>
<path d="M441.912 23.25H422.973C422.597 23.2574 422.24 23.4117 421.977 23.6797C421.714 23.9477 421.567 24.308 421.567 24.6833C421.567 25.0586 421.714 25.419 421.977 25.687C422.24 25.955 422.597 26.1092 422.973 26.1166H441.912C442.287 26.1092 442.645 25.955 442.908 25.687C443.171 25.419 443.318 25.0586 443.318 24.6833C443.318 24.308 443.171 23.9477 442.908 23.6797C442.645 23.4117 442.287 23.2574 441.912 23.25Z" fill="#3F3D56"/>
<path d="M441.912 28.623H422.973C422.597 28.6305 422.24 28.7847 421.977 29.0527C421.714 29.3207 421.567 29.6811 421.567 30.0564C421.567 30.4317 421.714 30.792 421.977 31.06C422.24 31.328 422.597 31.4823 422.973 31.4897H441.912C442.287 31.4823 442.645 31.328 442.908 31.06C443.171 30.792 443.318 30.4317 443.318 30.0564C443.318 29.6811 443.171 29.3207 442.908 29.0527C442.645 28.7847 442.287 28.6305 441.912 28.623Z" fill="#3F3D56"/>
<path d="M228.201 117.939H181.891C180.145 117.939 178.729 119.355 178.729 121.101V126.028C178.729 127.774 180.145 129.189 181.891 129.189H228.201C229.948 129.189 231.364 127.774 231.364 126.028V121.101C231.364 119.355 229.948 117.939 228.201 117.939Z" fill="#1E8A97"/>
<path d="M254.933 140.439H155.16C153.413 140.439 151.997 141.855 151.997 143.601V148.528C151.997 150.274 153.413 151.689 155.16 151.689H254.933C256.68 151.689 258.096 150.274 258.096 148.528V143.601C258.096 141.855 256.68 140.439 254.933 140.439Z" fill="#E6E6E6"/>
<path d="M254.933 162.939H155.16C153.413 162.939 151.997 164.355 151.997 166.101V171.028C151.997 172.774 153.413 174.189 155.16 174.189H254.933C256.68 174.189 258.096 172.774 258.096 171.028V166.101C258.096 164.355 256.68 162.939 254.933 162.939Z" fill="#E6E6E6"/>
<path d="M160.656 244.079C160.664 248.713 159.838 253.311 158.218 257.652H121.836C120.183 257.65 118.597 256.992 117.428 255.823C116.259 254.654 115.601 253.07 115.598 251.417V205.68C117.63 205.352 119.686 205.187 121.746 205.188C126.855 205.187 131.915 206.193 136.636 208.147C141.357 210.102 145.647 212.966 149.26 216.578C152.874 220.189 155.74 224.477 157.695 229.196C159.65 233.914 160.657 238.972 160.656 244.079Z" fill="#1E8A97"/>
<path opacity="0.2" d="M482.318 89.1479V85.8291H426.663V47.3652H423.356V85.8291H359.568V47.3652H356.26V85.8291H314.133C313.666 86.931 313.212 88.033 312.784 89.1479H356.26V154.201H302.278C302.33 155.316 302.408 156.418 302.499 157.52H356.26V209.414H315.988C316.481 210.529 317 211.631 317.544 212.72H356.26V256.343H359.568V212.72H423.356V256.343H426.663V212.72H482.318V209.414H426.663V209.414C426.663 202.599 428.006 195.851 430.615 189.555C433.224 183.259 437.049 177.538 441.87 172.719C446.691 167.9 452.415 164.078 458.714 161.47C465.013 158.862 471.765 157.52 478.583 157.52H482.318V154.201H426.663V89.1479H482.318ZM423.356 209.414H359.568V157.52H423.356V209.414ZM423.356 154.201H359.568V152.904C359.568 135.995 366.288 119.778 378.251 107.822C390.213 95.8651 406.438 89.1479 423.355 89.1479H423.356V154.201Z" fill="black"/>
<path d="M437.507 233.092C436.797 233.124 436.095 232.938 435.494 232.558C434.894 232.178 434.425 231.623 434.151 230.968C433.876 230.312 433.81 229.588 433.962 228.894C434.113 228.2 434.474 227.569 434.995 227.087C435.083 226.74 435.146 226.491 435.233 226.144C435.202 226.068 435.17 225.992 435.139 225.917C431.948 218.312 421.133 218.364 417.969 225.981C415.161 232.741 411.586 239.512 410.706 246.66C410.318 249.819 410.482 253.022 411.189 256.125C404.594 241.745 401.169 226.115 401.147 210.296C401.145 206.327 401.366 202.36 401.808 198.415C402.173 195.181 402.679 191.97 403.327 188.782C406.862 171.484 414.452 155.271 425.473 141.474C430.808 138.565 435.122 134.091 437.834 128.656C438.816 126.702 439.511 124.616 439.896 122.464C439.294 122.543 438.682 122.592 438.08 122.631C437.893 122.641 437.696 122.651 437.508 122.661L437.437 122.664C436.776 122.694 436.12 122.532 435.549 122.198C434.978 121.863 434.515 121.371 434.217 120.78C433.919 120.189 433.798 119.525 433.869 118.867C433.94 118.209 434.2 117.586 434.617 117.072C434.877 116.753 435.137 116.433 435.397 116.114C435.792 115.621 436.196 115.138 436.591 114.645C436.636 114.598 436.679 114.549 436.719 114.497C437.173 113.935 437.627 113.383 438.08 112.821C437.252 111.536 436.138 110.459 434.825 109.675C430.277 107.013 424.003 108.857 420.718 112.969C417.424 117.08 416.802 122.848 417.946 127.985C418.923 132.383 421.054 136.416 423.451 140.251C423.204 140.567 422.948 140.872 422.701 141.188C418.193 146.982 414.264 153.204 410.97 159.764C411.771 152.415 410.815 144.98 408.18 138.072C405.51 131.634 400.506 126.212 396.099 120.646C390.805 113.961 379.95 116.879 379.017 125.353C379.008 125.435 378.999 125.517 378.99 125.599C379.645 125.968 380.286 126.36 380.913 126.775C381.7 127.301 382.311 128.052 382.664 128.931C383.017 129.809 383.096 130.774 382.891 131.698C382.686 132.623 382.207 133.464 381.516 134.111C380.824 134.758 379.954 135.182 379.017 135.326L378.921 135.341C379.155 137.699 379.567 140.036 380.155 142.332C381.857 148.74 384.866 154.728 388.993 159.92C393.12 165.112 398.275 169.396 404.136 172.503C404.52 172.7 404.895 172.897 405.28 173.085C401.971 182.459 399.895 192.223 399.105 202.132C398.657 207.978 398.684 213.851 399.184 219.693L399.154 219.486C397.891 212.99 394.424 207.128 389.339 202.891C381.785 196.689 371.113 194.406 362.964 189.42C359.042 187.021 354.015 190.122 354.7 194.667C354.711 194.74 354.722 194.813 354.733 194.885C355.948 195.38 357.131 195.949 358.275 196.591C358.929 196.96 359.57 197.352 360.197 197.766C360.984 198.292 361.595 199.044 361.948 199.922C362.301 200.801 362.38 201.765 362.175 202.69C361.97 203.614 361.491 204.455 360.8 205.102C360.108 205.75 359.238 206.173 358.301 206.318L358.205 206.332C358.136 206.342 358.077 206.352 358.008 206.362C360.084 211.315 362.997 215.875 366.62 219.841C371.096 224.641 376.505 228.477 382.517 231.113C388.529 233.75 395.016 235.131 401.581 235.173H401.591C403.373 242.913 405.955 250.447 409.295 257.653H436.818C436.916 257.348 437.005 257.032 437.094 256.726C434.546 256.887 431.989 256.734 429.478 256.273C431.52 253.769 433.562 251.244 435.604 248.74C435.65 248.693 435.693 248.644 435.733 248.592C436.768 247.31 437.814 246.038 438.85 244.757L438.85 244.755C438.906 240.826 438.454 236.906 437.508 233.092L437.507 233.092ZM405.99 171.123L406.005 171.103L405.99 171.142V171.123ZM399.894 226.052L399.657 225.52C399.667 225.135 399.667 224.751 399.657 224.356C399.657 224.248 399.638 224.139 399.638 224.031C399.726 224.711 399.805 225.392 399.904 226.072L399.894 226.052Z" fill="#2F2E41"/>
<path d="M192.428 168.753V131.781C192.428 126.106 190.172 120.663 186.157 116.65C182.143 112.637 176.697 110.383 171.019 110.383H92.6513C86.9734 110.383 81.528 112.637 77.5131 116.65C73.4982 120.663 71.2427 126.106 71.2427 131.781V334.611C71.2427 340.286 73.4982 345.729 77.5131 349.742C81.528 353.755 86.9734 356.009 92.6513 356.009H171.019C173.831 356.009 176.615 355.456 179.212 354.38C181.809 353.305 184.17 351.729 186.157 349.742C188.145 347.755 189.722 345.396 190.798 342.8C191.874 340.203 192.428 337.421 192.428 334.611V195.07C192.786 195.07 193.129 194.928 193.383 194.675C193.636 194.421 193.778 194.078 193.778 193.72V170.102C193.778 169.744 193.636 169.401 193.383 169.148C193.13 168.895 192.786 168.753 192.428 168.753Z" fill="#E6E6E6"/>
<path d="M187.872 131.928V334.465C187.872 338.672 186.212 342.71 183.252 345.7C180.291 348.69 176.27 350.393 172.061 350.436C172.003 350.442 171.944 350.445 171.886 350.444H93.1364C88.8968 350.443 84.8309 348.76 81.833 345.763C78.8351 342.767 77.1508 338.703 77.1504 334.465V131.928C77.1508 127.691 78.8351 123.627 81.833 120.631C84.8309 117.634 88.8968 115.951 93.1364 115.95H102.693C102.223 117.103 102.044 118.354 102.172 119.593C102.299 120.831 102.729 122.02 103.424 123.053C104.119 124.086 105.057 124.933 106.156 125.519C107.255 126.105 108.482 126.412 109.728 126.413H154.624C155.869 126.41 157.093 126.101 158.191 125.514C159.288 124.927 160.225 124.08 160.919 123.048C161.612 122.015 162.042 120.828 162.17 119.59C162.297 118.353 162.119 117.103 161.651 115.95H171.886C176.125 115.951 180.191 117.634 183.189 120.631C186.187 123.627 187.872 127.691 187.872 131.928Z" fill="white"/>
<path d="M172.258 344.192C172.258 346.291 172.192 348.372 172.061 350.436C172.003 350.442 171.944 350.445 171.886 350.444H93.1364C88.8968 350.443 84.8309 348.76 81.833 345.763C78.8351 342.767 77.1508 338.703 77.1504 334.465V244.206C102.808 245.499 126.988 256.598 144.689 275.208C162.391 293.817 172.261 318.514 172.258 344.192Z" fill="#F2F2F2"/>
<path d="M71.6759 189.436C71.1928 189.436 70.7296 189.244 70.3879 188.902C70.0463 188.561 69.8541 188.098 69.8535 187.615V175.229C69.8535 174.746 70.0455 174.282 70.3873 173.941C70.7291 173.599 71.1926 173.407 71.6759 173.407C72.1592 173.407 72.6228 173.599 72.9645 173.941C73.3063 174.282 73.4983 174.746 73.4983 175.229V187.615C73.4977 188.098 73.3056 188.561 72.9639 188.902C72.6223 189.244 72.1591 189.436 71.6759 189.436Z" fill="#E6E6E6"/>
<path d="M142.18 179.546H122.842C121.095 179.546 119.679 180.961 119.679 182.707V187.635C119.679 189.381 121.095 190.796 122.842 190.796H142.18C143.927 190.796 145.343 189.381 145.343 187.635V182.707C145.343 180.961 143.927 179.546 142.18 179.546Z" fill="#1E8A97"/>
<path d="M168.912 202.047H96.1097C94.3629 202.047 92.9468 203.462 92.9468 205.208V210.136C92.9468 211.882 94.3629 213.297 96.1097 213.297H168.912C170.659 213.297 172.075 211.882 172.075 210.136V205.208C172.075 203.462 170.659 202.047 168.912 202.047Z" fill="#E6E6E6"/>
<path d="M168.912 224.547H96.1097C94.3629 224.547 92.9468 225.962 92.9468 227.708V232.636C92.9468 234.382 94.3629 235.797 96.1097 235.797H168.912C170.659 235.797 172.075 234.382 172.075 232.636V227.708C172.075 225.962 170.659 224.547 168.912 224.547Z" fill="#E6E6E6"/>
<path d="M151.395 338.917C151.062 338.933 150.732 338.845 150.45 338.667C150.168 338.489 149.948 338.228 149.82 337.92C149.691 337.613 149.66 337.273 149.731 336.948C149.802 336.622 149.971 336.326 150.216 336.1L150.328 335.657C150.313 335.621 150.298 335.586 150.283 335.55C149.948 334.758 149.385 334.083 148.667 333.609C147.948 333.135 147.106 332.884 146.245 332.887C145.384 332.89 144.543 333.147 143.828 333.627C143.113 334.106 142.556 334.785 142.226 335.58C140.909 338.752 139.231 341.93 138.818 345.284C138.636 346.767 138.713 348.27 139.045 349.726C135.95 342.978 134.342 335.643 134.332 328.22C134.331 326.357 134.435 324.496 134.642 322.645C134.814 321.127 135.051 319.62 135.355 318.124C137.014 310.007 140.576 302.398 145.748 295.924C148.251 294.559 150.275 292.46 151.548 289.909C152.009 288.992 152.335 288.013 152.516 287.003C152.233 287.04 151.946 287.063 151.664 287.082C151.576 287.087 151.483 287.091 151.395 287.096L151.362 287.097C151.052 287.111 150.744 287.035 150.476 286.878C150.208 286.721 149.991 286.491 149.851 286.213C149.711 285.936 149.654 285.624 149.688 285.315C149.721 285.007 149.843 284.714 150.039 284.473C150.161 284.323 150.283 284.173 150.405 284.023C150.59 283.792 150.78 283.565 150.965 283.334C150.986 283.312 151.006 283.289 151.025 283.265C151.238 283.001 151.451 282.742 151.664 282.478C151.275 281.875 150.752 281.37 150.136 281.002C148.002 279.753 145.058 280.618 143.516 282.547C141.97 284.477 141.679 287.184 142.216 289.594C142.744 291.646 143.617 293.592 144.799 295.35C144.683 295.498 144.563 295.642 144.447 295.79C142.331 298.509 140.487 301.428 138.942 304.507C139.318 301.058 138.869 297.569 137.633 294.328C136.38 291.307 134.031 288.762 131.963 286.15C131.416 285.449 130.673 284.925 129.829 284.645C128.984 284.366 128.075 284.342 127.217 284.579C126.359 284.815 125.591 285.3 125.009 285.973C124.427 286.646 124.057 287.476 123.947 288.359C123.943 288.398 123.939 288.436 123.935 288.475C124.242 288.648 124.543 288.832 124.837 289.026C125.207 289.273 125.493 289.626 125.659 290.038C125.824 290.45 125.861 290.903 125.765 291.337C125.669 291.77 125.444 292.165 125.12 292.469C124.795 292.773 124.387 292.971 123.948 293.039L123.903 293.046C124.012 294.153 124.205 295.249 124.481 296.327C125.28 299.334 126.692 302.144 128.629 304.58C130.565 307.017 132.985 309.027 135.735 310.485C135.915 310.578 136.091 310.67 136.272 310.758C134.719 315.157 133.745 319.739 133.374 324.389C133.164 327.132 133.176 329.888 133.411 332.629L133.397 332.532C132.804 329.484 131.177 326.733 128.791 324.745C125.246 321.835 120.238 320.763 116.414 318.424C116.008 318.163 115.535 318.024 115.053 318.023C114.57 318.021 114.096 318.158 113.689 318.417C113.281 318.676 112.956 319.046 112.752 319.483C112.547 319.921 112.473 320.407 112.536 320.886L112.552 320.988C113.122 321.22 113.677 321.488 114.214 321.789C114.521 321.962 114.821 322.146 115.116 322.34C115.485 322.587 115.772 322.94 115.937 323.352C116.103 323.764 116.14 324.217 116.044 324.651C115.948 325.084 115.723 325.479 115.399 325.783C115.074 326.087 114.666 326.285 114.226 326.353L114.181 326.36C114.149 326.365 114.121 326.369 114.089 326.374C115.063 328.698 116.43 330.838 118.13 332.699C120.23 334.952 122.769 336.752 125.59 337.989C128.411 339.226 131.455 339.874 134.536 339.894H134.54C135.377 343.526 136.588 347.061 138.156 350.443H151.071C151.118 350.3 151.159 350.152 151.201 350.008C150.005 350.083 148.805 350.012 147.627 349.795C148.585 348.62 149.544 347.436 150.502 346.26C150.523 346.238 150.543 346.215 150.562 346.191C151.048 345.59 151.539 344.993 152.025 344.391L152.025 344.39C152.051 342.547 151.839 340.707 151.395 338.918L151.395 338.917ZM136.605 309.837L136.612 309.828L136.605 309.846V309.837ZM133.744 335.614L133.633 335.364C133.638 335.184 133.638 335.003 133.633 334.818C133.633 334.767 133.624 334.716 133.624 334.665C133.665 334.985 133.703 335.304 133.749 335.623L133.744 335.614Z" fill="#CCCCCC"/>
<path d="M71.3112 165.393C70.828 165.392 70.3648 165.2 70.0232 164.858C69.6815 164.517 69.4893 164.054 69.4888 163.571V151.185C69.4888 150.702 69.6808 150.238 70.0225 149.897C70.3643 149.555 70.8278 149.363 71.3112 149.363C71.7945 149.363 72.258 149.555 72.5998 149.897C72.9416 150.238 73.1336 150.702 73.1336 151.185V163.571C73.133 164.054 72.9408 164.517 72.5992 164.858C72.2575 165.2 71.7943 165.392 71.3112 165.393Z" fill="#E6E6E6"/>
<path d="M119.787 118.033C119.788 117.551 119.98 117.088 120.322 116.746C120.663 116.405 121.126 116.212 121.61 116.212H134.002C134.485 116.212 134.949 116.404 135.29 116.745C135.632 117.087 135.824 117.55 135.824 118.033C135.824 118.517 135.632 118.98 135.29 119.321C134.949 119.663 134.485 119.855 134.002 119.855H121.61C121.126 119.854 120.663 119.662 120.322 119.321C119.98 118.979 119.788 118.516 119.787 118.033Z" fill="white"/>
<path d="M71.6759 210.565C71.1928 210.565 70.7296 210.373 70.3879 210.031C70.0463 209.69 69.8541 209.227 69.8535 208.744V196.358C69.8535 195.875 70.0455 195.411 70.3873 195.07C70.7291 194.728 71.1926 194.536 71.6759 194.536C72.1592 194.536 72.6228 194.728 72.9645 195.07C73.3063 195.411 73.4983 195.875 73.4983 196.358V208.744C73.4977 209.227 73.3056 209.69 72.9639 210.031C72.6223 210.373 72.1591 210.565 71.6759 210.565Z" fill="#E6E6E6"/>
<path d="M140.927 119.855C141.933 119.855 142.749 119.039 142.749 118.033C142.749 117.027 141.933 116.212 140.927 116.212C139.92 116.212 139.104 117.027 139.104 118.033C139.104 119.039 139.92 119.855 140.927 119.855Z" fill="white"/>
<path d="M267.363 164.742L264.074 165.446C264.052 164.071 263.881 162.703 263.563 161.365C263.263 163.003 262.633 164.564 261.711 165.951L242.848 169.977L224.738 150.875C224.711 141.323 230.017 134.065 239.531 134.065C240.105 134.065 240.699 134.093 241.3 134.148C246.441 133.288 251.714 134.455 256.011 137.404C260.308 140.352 263.292 144.852 264.336 149.956C271.08 156.593 268.634 160.495 267.363 164.742Z" fill="#2F2E41"/>
<path d="M276.636 388.135H283.478L286.734 361.756L276.635 361.757L276.636 388.135Z" fill="#FFB6B6"/>
<path d="M274.939 384.76L285.756 384.115V388.747L296.039 395.845C296.547 396.196 296.929 396.7 297.13 397.283C297.332 397.866 297.341 398.498 297.157 399.087C296.974 399.676 296.607 400.191 296.109 400.557C295.612 400.922 295.011 401.119 294.394 401.119H281.517L279.297 396.538L278.431 401.119H273.576L274.939 384.76Z" fill="#2F2E41"/>
<path d="M196.477 380.69L202.428 384.065L218.283 362.728L209.5 357.747L196.477 380.69Z" fill="#FFB6B6"/>
<path d="M196.667 376.919L206.392 381.693L204.105 385.721L209.544 396.967C209.813 397.523 209.897 398.149 209.784 398.756C209.671 399.362 209.367 399.917 208.917 400.339C208.466 400.76 207.893 401.027 207.28 401.1C206.667 401.173 206.047 401.048 205.51 400.743L194.31 394.391L194.642 389.312L191.626 392.869L187.403 390.474L196.667 376.919Z" fill="#2F2E41"/>
<path d="M301.927 169.363C301.051 169.49 300.212 169.808 299.472 170.293C298.731 170.779 298.106 171.421 297.64 172.174C297.174 172.927 296.88 173.773 296.776 174.653C296.673 175.532 296.764 176.424 297.043 177.264L286.573 186.322L290.529 194.024L305.135 181.025C306.516 180.463 307.644 179.414 308.303 178.077C308.963 176.74 309.109 175.208 308.713 173.77C308.318 172.333 307.409 171.09 306.158 170.278C304.907 169.466 303.402 169.14 301.927 169.363H301.927Z" fill="#FFB6B6"/>
<path d="M291.384 200.511C287.891 205.798 280.064 210.904 268.447 215.43C267.806 215.687 267.119 215.808 266.429 215.786C265.739 215.763 265.061 215.597 264.439 215.299C260.055 213.305 257.245 205.892 256.981 205.173L248.49 193.724C248.34 193.558 244.369 189.054 244.823 184.626C244.926 183.698 245.228 182.803 245.709 182.003C246.19 181.203 246.838 180.516 247.61 179.991C254.037 175.228 268.443 191.768 270.312 193.968L279.713 188.242L286.563 185.188L292.093 178.462L299.879 186.419L292.877 197.554C292.503 198.597 292.001 199.591 291.384 200.511Z" fill="#2F2E41"/>
<path d="M266.965 220.795C266.965 220.795 287.083 252.825 283.438 256.468C279.793 260.111 274.122 261.067 274.122 261.067L261.569 244.81L266.965 220.795Z" fill="#2F2E41"/>
<path d="M249.177 177.051L258.659 183.462C263.066 186.442 266.381 190.777 268.1 195.809C269.82 200.842 269.851 206.298 268.188 211.35L265.519 219.46L249.177 177.051Z" fill="#2F2E41"/>
<path d="M232.411 264.482L231.143 268.895L226.818 322.113L205.207 362.369L215.521 369.732L244.991 331.44L256.647 293.419L274.952 377.587L288.704 376.605L279.153 259.908L261.029 227.061L232.411 264.482Z" fill="#2F2E41"/>
<path d="M247.565 178.662L260.761 189.442C263.658 191.808 265.743 195.018 266.728 198.625C267.174 200.263 267.387 201.955 267.358 203.653L266.965 227.061L279.065 259.382C279.065 259.382 246.261 271.768 241.888 260.839C237.514 249.91 247.565 178.662 247.565 178.662Z" fill="#1E8A97"/>
<path d="M251.511 266.513C235.124 266.513 231.131 266.636 230.872 266.584L230.613 266.532V256.68L234.598 238.982C234.132 233.487 233.041 226.242 233.14 220.038C233.497 197.615 232.394 175.712 232.394 175.712L241.067 167.71L245.008 170.273L252.316 177.578C260.812 198.475 267.553 218.149 267.596 219.413L268.13 241.168L265.943 249.911C256.05 256.891 265.089 266.513 251.511 266.513Z" fill="#2F2E41"/>
<path opacity="0.2" d="M236.07 195.246L234.078 207.675L247.565 213.235L236.07 195.246Z" fill="black"/>
<path d="M249.656 165.379C256.949 165.379 262.86 159.47 262.86 152.181C262.86 144.892 256.949 138.983 249.656 138.983C242.364 138.983 236.452 144.892 236.452 152.181C236.452 159.47 242.364 165.379 249.656 165.379Z" fill="#FFB6B6"/>
<path opacity="0.2" d="M227.532 219.145C231.046 223.212 235.813 225.996 241.083 227.061C246.353 228.126 251.827 227.41 256.646 225.026L259.52 223.605L227.532 219.145Z" fill="black"/>
<path d="M273.479 216.106C272.89 215.445 272.163 214.92 271.349 214.57C270.536 214.22 269.655 214.052 268.77 214.079C267.884 214.106 267.015 214.326 266.224 214.725C265.433 215.124 264.739 215.691 264.191 216.386L250.859 212.646L246.609 220.189L265.51 225.207C266.741 226.05 268.238 226.412 269.717 226.226C271.197 226.039 272.557 225.316 273.539 224.194C274.521 223.072 275.058 221.629 275.046 220.139C275.035 218.648 274.478 217.213 273.479 216.106H273.479Z" fill="#FFB6B6"/>
<path d="M241.664 224.478C235.326 224.478 226.749 220.764 216.568 213.569C216.001 213.176 215.521 212.67 215.16 212.082C214.798 211.494 214.563 210.838 214.469 210.154C213.718 205.399 218.359 198.97 218.814 198.354L223.692 184.963C223.748 184.745 225.32 178.952 229.267 176.89C230.098 176.464 231.012 176.223 231.945 176.184C232.878 176.144 233.809 176.306 234.673 176.66C242.191 179.397 236.32 200.526 235.515 203.297L245.475 207.983L251.801 212.013L260.463 212.919L258.111 223.798L244.956 224.094C243.878 224.357 242.773 224.486 241.664 224.478Z" fill="#2F2E41"/>
<path d="M265.49 143.499C264.433 144.873 260.792 146.088 256.466 147.069C256.473 146.979 256.473 146.89 256.473 146.8C256.452 145.425 256.28 144.056 255.962 142.718C255.663 144.357 255.033 145.917 254.11 147.304C254.041 147.407 253.972 147.511 253.896 147.615C250.185 148.347 246.261 148.913 243.186 149.293C245.3 156.903 253.405 163.146 252.528 167.773L228.78 172.622C228.926 170.699 228.772 168.765 228.324 166.889C227.87 169.365 226.669 171.642 224.883 173.416L222.866 173.83L222.264 170.867C217.055 158.361 224.317 145.557 236.215 138.934C238.336 135.755 241.63 133.545 245.377 132.787L248.341 132.18C250.21 131.797 252.137 131.787 254.011 132.149C255.884 132.511 257.668 133.238 259.261 134.289C260.853 135.34 262.223 136.694 263.292 138.275C264.361 139.855 265.108 141.63 265.49 143.499Z" fill="#2F2E41"/>
</g>
<defs>
<clipPath id="clip0_87_61">
<rect width="627" height="402" fill="white"/>
</clipPath>
</defs>
</svg>
